HIERARCHY
ROOT hips
{
	OFFSET 0.000000 29.995300 -0.000000
	CHANNELS 6 Xposition Yposition Zposition Zrotation Yrotation Xrotation 
	JOINT Chest
	{
		OFFSET 0.000000 10.123600 0.695200
		CHANNELS 3 Zrotation Yrotation Xrotation
		JOINT Chest2
		{
			OFFSET 0.000000 15.405600 0.012300
			CHANNELS 3 Zrotation Yrotation Xrotation
			JOINT Chest3
			{
				OFFSET 0.000000 11.482400 -0.009100
				CHANNELS 3 Zrotation Yrotation Xrotation
				JOINT Neck
				{
					OFFSET 0.000000 25.678300 -0.023300
					CHANNELS 3 Zrotation Yrotation Xrotation
					JOINT Head
					{
						OFFSET 0.000000 13.458800 0.864200
						CHANNELS 3 Zrotation Yrotation Xrotation
						JOINT Head_End
						{
							OFFSET 0.000000 11.713200 -0.000000
							CHANNELS 3 Zrotation Yrotation Xrotation
							End Site
							{
								OFFSET 0.005000 0.000000 0.000000
							}
						}
					}
				}
				JOINT LeftCollar
				{
					OFFSET 12.227600 21.516500 -0.711700
					CHANNELS 3 Zrotation Yrotation Xrotation
					JOINT LeftShoulder
					{
						OFFSET 10.451400 0.021300 -0.002200
						CHANNELS 3 Zrotation Yrotation Xrotation
						JOINT LeftElbow
						{
							OFFSET 26.123400 0.000000 0.000000
							CHANNELS 3 Zrotation Yrotation Xrotation
							JOINT LeftWrist
							{
								OFFSET 25.245600 0.035600 0.002400
								CHANNELS 3 Zrotation Yrotation Xrotation
								JOINT Middle_00_L
								{
									OFFSET 11.653500 0.000000 0.000000
									CHANNELS 3 Zrotation Yrotation Xrotation
									JOINT Middle_01_L
									{
										OFFSET 4.384300 0.000000 0.000000
										CHANNELS 3 Zrotation Yrotation Xrotation
										JOINT Middle_02_L
										{
											OFFSET 3.470400 -0.000300 0.000000
											CHANNELS 3 Zrotation Yrotation Xrotation
											JOINT Middle_03_L
											{
												OFFSET 2.422200 0.000300 0.000000
												CHANNELS 3 Zrotation Yrotation Xrotation
												End Site
												{
													OFFSET 0.005000 0.000000 0.000000
												}
											}
										}
									}
								}
								JOINT Index_00_L
								{
									OFFSET 11.320700 0.000000 3.214800
									CHANNELS 3 Zrotation Yrotation Xrotation
									JOINT Index_01_L
									{
										OFFSET 3.752500 0.000000 0.000000
										CHANNELS 3 Zrotation Yrotation Xrotation
										JOINT Index_02_L
										{
											OFFSET 2.704900 0.000000 0.000300
											CHANNELS 3 Zrotation Yrotation Xrotation
											JOINT Index_03_L
											{
												OFFSET 2.288400 0.000000 -0.000300
												CHANNELS 3 Zrotation Yrotation Xrotation
												End Site
												{
													OFFSET 0.005000 0.000000 0.000000
												}
											}
										}
									}
								}
								JOINT Thumb_00_L
								{
									OFFSET 2.189000 0.000000 5.112700
									CHANNELS 3 Zrotation Yrotation Xrotation
									JOINT Thumb_01_L
									{
										OFFSET 5.672300 0.000000 0.000000
										CHANNELS 3 Zrotation Yrotation Xrotation
										JOINT Thumb_02_L
										{
											OFFSET 3.353600 0.000000 0.000400
											CHANNELS 3 Zrotation Yrotation Xrotation
											JOINT Thumb_03_L
											{
												OFFSET 3.066600 0.000000 -0.000400
												CHANNELS 3 Zrotation Yrotation Xrotation
												End Site
												{
													OFFSET 0.005000 0.000000 0.000000
												}
											}
										}
									}
								}
								JOINT Ring_00_L
								{
									OFFSET 11.421100 0.000000 -3.087400
									CHANNELS 3 Zrotation Yrotation Xrotation
									JOINT Ring_01_L
									{
										OFFSET 4.107700 0.000000 0.000000
										CHANNELS 3 Zrotation Yrotation Xrotation
										JOINT Ring_02_L
										{
											OFFSET 2.971800 0.000000 0.000500
											CHANNELS 3 Zrotation Yrotation Xrotation
											JOINT Ring_03_L
											{
												OFFSET 2.159200 0.000000 -0.000500
												CHANNELS 3 Zrotation Yrotation Xrotation
												End Site
												{
													OFFSET 0.005000 0.000000 0.000000
												}
											}
										}
									}
								}
								JOINT Little_00_L
								{
									OFFSET 10.838200 0.000000 -5.836000
									CHANNELS 3 Zrotation Yrotation Xrotation
									JOINT Little_01_L
									{
										OFFSET 3.568800 0.000000 0.000000
										CHANNELS 3 Zrotation Yrotation Xrotation
										JOINT Little_02_L
										{
											OFFSET 2.336100 0.000000 0.000200
											CHANNELS 3 Zrotation Yrotation Xrotation
											JOINT Little_03_L
											{
												OFFSET 1.912900 0.000000 -0.000200
												CHANNELS 3 Zrotation Yrotation Xrotation
												End Site
												{
													OFFSET 0.005000 0.000000 0.000000
												}
											}
										}
									}
								}
							}
						}
					}
				}
				JOINT RightCollar
				{
					OFFSET -12.227600 21.516500 -0.711700
					CHANNELS 3 Zrotation Yrotation Xrotation
					JOINT RightShoulder
					{
						OFFSET -10.451300 0.021300 -0.002200
						CHANNELS 3 Zrotation Yrotation Xrotation
						JOINT RightElbow
						{
							OFFSET -26.123400 0.000000 0.000000
							CHANNELS 3 Zrotation Yrotation Xrotation
							JOINT RightWrist
							{
								OFFSET -25.245800 0.035400 0.002000
								CHANNELS 3 Zrotation Yrotation Xrotation
								JOINT Middle_00_R
								{
									OFFSET -11.654000 0.000000 0.000000
									CHANNELS 3 Zrotation Yrotation Xrotation
									JOINT Middle_01_R
									{
										OFFSET -4.408600 0.000000 0.000000
										CHANNELS 3 Zrotation Yrotation Xrotation
										JOINT Middle_02_R
										{
											OFFSET -3.470400 0.000000 0.000000
											CHANNELS 3 Zrotation Yrotation Xrotation
											JOINT Middle_03_R
											{
												OFFSET -2.422200 0.000000 0.000000
												CHANNELS 3 Zrotation Yrotation Xrotation
												End Site
												{
													OFFSET 0.005000 0.000000 0.000000
												}
											}
										}
									}
								}
								JOINT Ring_00_R
								{
									OFFSET -11.459300 0.000000 -3.067300
									CHANNELS 3 Zrotation Yrotation Xrotation
									JOINT Ring_01_R
									{
										OFFSET -4.107700 0.000000 0.000000
										CHANNELS 3 Zrotation Yrotation Xrotation
										JOINT Ring_02_R
										{
											OFFSET -2.971800 0.000000 0.000000
											CHANNELS 3 Zrotation Yrotation Xrotation
											JOINT Ring_03_R
											{
												OFFSET -2.159200 0.000000 0.000000
												CHANNELS 3 Zrotation Yrotation Xrotation
												End Site
												{
													OFFSET 0.005000 0.000000 0.000000
												}
											}
										}
									}
								}
								JOINT Little_00_R
								{
									OFFSET -10.887000 0.000000 -5.818300
									CHANNELS 3 Zrotation Yrotation Xrotation
									JOINT Little_01_R
									{
										OFFSET -3.568800 0.000000 0.000000
										CHANNELS 3 Zrotation Yrotation Xrotation
										JOINT Little_02_R
										{
											OFFSET -2.336100 0.000000 0.000000
											CHANNELS 3 Zrotation Yrotation Xrotation
											JOINT Little_03_R
											{
												OFFSET -1.912900 0.000000 0.000000
												CHANNELS 3 Zrotation Yrotation Xrotation
												End Site
												{
													OFFSET 0.005000 0.000000 0.000000
												}
											}
										}
									}
								}
								JOINT Index_00_R
								{
									OFFSET -11.333200 0.000000 3.234400
									CHANNELS 3 Zrotation Yrotation Xrotation
									JOINT Index_01_R
									{
										OFFSET -3.752500 0.000000 0.000000
										CHANNELS 3 Zrotation Yrotation Xrotation
										JOINT Index_02_R
										{
											OFFSET -2.704900 0.000000 0.000000
											CHANNELS 3 Zrotation Yrotation Xrotation
											JOINT Index_03_R
											{
												OFFSET -2.288400 0.000000 0.000000
												CHANNELS 3 Zrotation Yrotation Xrotation
												End Site
												{
													OFFSET 0.005000 0.000000 0.000000
												}
											}
										}
									}
								}
								JOINT Thumb_00_R
								{
									OFFSET -2.193600 -0.231700 5.095700
									CHANNELS 3 Zrotation Yrotation Xrotation
									JOINT Thumb_01_R
									{
										OFFSET -5.672200 0.231700 0.000000
										CHANNELS 3 Zrotation Yrotation Xrotation
										JOINT Thumb_02_R
										{
											OFFSET -3.353600 0.000000 0.000000
											CHANNELS 3 Zrotation Yrotation Xrotation
											JOINT Thumb_03_R
											{
												OFFSET -3.066500 0.000000 0.000000
												CHANNELS 3 Zrotation Yrotation Xrotation
												End Site
												{
													OFFSET 0.005000 0.000000 0.000000
												}
											}
										}
									}
								}
							}
						}
					}
				}
			}
		}
	}
	JOINT LeftHip
	{
		OFFSET 6.356900 0.000000 0.000000
		CHANNELS 3 Zrotation Yrotation Xrotation
		JOINT LeftKnee
		{
			OFFSET -0.000100 -37.930500 0.000000
			CHANNELS 3 Zrotation Yrotation Xrotation
			JOINT LeftAnkle
			{
				OFFSET -0.000100 -42.440200 -0.085400
				CHANNELS 3 Zrotation Yrotation Xrotation
				JOINT LeftToe
				{
					OFFSET 0.135400 -9.338000 13.882500
					CHANNELS 3 Zrotation Yrotation Xrotation
					End Site
					{
						OFFSET 0.005000 0.000000 0.000000
					}
				}
			}
		}
	}
	JOINT RightHip
	{
		OFFSET -6.356900 0.000000 0.000000
		CHANNELS 3 Zrotation Yrotation Xrotation
		JOINT RightKnee
		{
			OFFSET 0.000100 -37.930500 0.000000
			CHANNELS 3 Zrotation Yrotation Xrotation
			JOINT RightAnkle
			{
				OFFSET 0.000100 -42.440200 -0.085400
				CHANNELS 3 Zrotation Yrotation Xrotation
				JOINT RightToe
				{
					OFFSET -0.135400 -9.338000 13.882500
					CHANNELS 3 Zrotation Yrotation Xrotation
					End Site
					{
						OFFSET 0.005000 0.000000 0.000000
					}
				}
			}
		}
	}
}
MOTION
Frames: 4
Frame Time: 0.041667
0.000000 89.700000 0.000000 0.000000 0.000000 0.000000 -0.632087 0.072847 -1.525450 0.640867 -1.509245 -0.982582 -0.699038 -0.001425 3.123746 0.129111 2.038579 -1.447230 -0.346342 -2.164419 4.525552 0.000000 0.000000 0.000000 -22.941959 -3.896807 0.263670 -47.652829 -5.032514 17.782454 -10.340759 -25.320720 17.819757 -5.523135 17.421481 -7.774659 -38.387779 19.569646 -15.000000 -28.213183 0.000000 0.000000 -25.824197 0.000000 0.000000 0.022390 -0.001199 4.934506 -28.373601 14.015371 -15.000000 -19.821013 0.000000 0.000000 -37.955842 0.000000 0.000000 2.447046 -0.079831 2.056764 -30.909711 -16.459860 120.000000 -33.040923 0.000000 0.000000 15.000000 0.000000 0.000000 4.260386 -0.094452 1.375350 -32.483387 -5.398663 15.000000 -37.290501 0.000000 0.000000 -27.389546 0.000000 0.000000 -6.917769 0.291382 2.291170 -31.429619 0.228887 5.090781 -29.777839 0.000000 0.000000 -29.098267 0.000000 0.000000 0.441624 -0.014543 2.538997 25.054564 7.188447 0.350091 50.079815 4.772104 19.081745 3.458216 30.828485 5.020214 4.599512 -26.500926 4.892263 35.828313 -13.007843 -15.000000 26.012504 0.000000 0.000000 24.283346 0.000000 0.000000 -7.969741 -5.107087 -8.050663 32.856982 -10.938220 -6.477920 34.542349 0.000000 0.000000 29.078786 0.000000 0.000000 6.271931 -1.933901 -4.817211 30.407310 4.614210 8.874962 28.512657 0.000000 0.000000 28.356321 0.000000 0.000000 -1.013052 -2.505694 -6.799366 28.420395 -8.761488 -15.000000 17.306786 0.000000 0.000000 33.078936 0.000000 0.000000 -3.109834 -2.403556 -3.139792 31.316565 14.120361 120.000000 27.277062 0.000000 0.000000 -15.000000 0.000000 0.000000 -4.610124 -2.491975 -2.359596 0.000000 0.000000 0.000000 0.000000 0.000000 0.000000 0.000000 0.000000 0.000000 0.000000 0.000000 0.000000 0.000000 0.000000 0.000000 0.000000 0.000000 0.000000 0.000000 0.000000 0.000000 0.000000 0.000000 0.000000 
0.000000 89.700000 0.000000 0.000000 0.000000 0.000000 -0.648894 0.063041 -1.559258 0.646449 -1.512634 -0.968805 -0.691605 -0.007817 3.133710 0.134036 2.039432 -1.425001 -0.344426 -2.182971 4.580785 0.000000 0.000000 0.000000 -22.945020 -3.917603 0.287056 -47.664753 -5.027309 17.794529 -10.360847 -25.319562 17.781368 -5.609618 17.370443 -8.131635 -38.815170 20.382163 -15.000000 -28.346247 0.000000 0.000000 -25.621090 0.000000 0.000000 0.022390 -0.001199 4.934506 -28.861268 14.857960 -15.000000 -19.713160 0.000000 0.000000 -37.638690 0.000000 0.000000 2.447046 -0.079831 2.056764 -30.956364 -15.802994 120.000000 -32.668061 0.000000 0.000000 15.000000 0.000000 0.000000 4.260386 -0.094452 1.375350 -32.678379 -5.084756 15.000000 -37.438953 0.000000 0.000000 -27.307376 0.000000 0.000000 -6.917769 0.291382 2.291170 -31.786173 0.600453 5.130830 -29.529108 0.000000 0.000000 -28.974309 0.000000 0.000000 0.441624 -0.014543 2.538997 25.081069 7.218995 0.309554 50.044774 4.724815 19.042208 3.452477 30.747181 4.887195 4.443177 -26.288482 5.156824 36.325977 -13.172149 -15.000000 25.212924 0.000000 0.000000 24.444611 0.000000 0.000000 -7.969741 -5.107087 -8.050663 33.448723 -11.043530 -6.747712 33.892334 0.000000 0.000000 29.084072 0.000000 0.000000 6.271931 -1.933901 -4.817211 30.753243 4.729094 9.060098 28.155263 0.000000 0.000000 28.294430 0.000000 0.000000 -1.013052 -2.505694 -6.799366 28.718344 -8.964047 -15.000000 16.941567 0.000000 0.000000 33.427239 0.000000 0.000000 -3.109834 -2.403556 -3.139792 31.471739 14.084911 120.000000 27.382267 0.000000 0.000000 -15.000000 0.000000 0.000000 -4.610124 -2.491975 -2.359596 0.000000 0.000000 0.000000 0.000000 0.000000 0.000000 0.000000 0.000000 0.000000 0.000000 0.000000 0.000000 0.000000 0.000000 0.000000 0.000000 0.000000 0.000000 0.000000 0.000000 0.000000 0.000000 0.000000 0.000000 
0.000000 89.700000 0.000000 0.000000 0.000000 0.000000 -0.662767 0.053433 -1.592032 0.650265 -1.515493 -0.953695 -0.684764 -0.012589 3.143861 0.138822 2.043211 -1.398438 -0.342765 -2.195290 4.630467 0.000000 0.000000 0.000000 -22.948351 -3.938105 0.308900 -47.675775 -5.023884 17.805652 -10.379409 -25.315901 17.747223 -5.633146 17.333969 -8.419284 -39.120778 20.881502 -15.000000 -28.375402 0.000000 0.000000 -25.443977 0.000000 0.000000 0.022390 -0.001199 4.934506 -29.276148 15.453096 -15.000000 -19.649973 0.000000 0.000000 -37.372378 0.000000 0.000000 2.447046 -0.079831 2.056764 -30.948982 -15.222195 120.000000 -32.267985 0.000000 0.000000 15.000000 0.000000 0.000000 4.260386 -0.094452 1.375350 -32.787169 -4.853844 15.000000 -37.484181 0.000000 0.000000 -27.209379 0.000000 0.000000 -6.917769 0.291382 2.291170 -31.954484 0.846712 5.177337 -29.301437 0.000000 0.000000 -28.852533 0.000000 0.000000 0.441624 -0.014543 2.538997 25.105045 7.245762 0.275666 50.012862 4.683896 19.004156 3.443019 30.715734 4.793094 4.282757 -26.092273 5.426830 36.979375 -13.241309 -15.000000 24.564878 0.000000 0.000000 24.545774 0.000000 0.000000 -7.969741 -5.107087 -8.050663 34.088490 -11.095398 -6.974607 33.349270 0.000000 0.000000 29.056804 0.000000 0.000000 6.271931 -1.933901 -4.817211 31.231533 4.863327 9.224768 27.936049 0.000000 0.000000 28.238831 0.000000 0.000000 -1.013052 -2.505694 -6.799366 28.985443 -9.113102 -15.000000 16.710875 0.000000 0.000000 33.733099 0.000000 0.000000 -3.109834 -2.403556 -3.139792 31.590537 14.048376 120.000000 27.449329 0.000000 0.000000 -15.000000 0.000000 0.000000 -4.610124 -2.491975 -2.359596 0.000000 0.000000 0.000000 0.000000 0.000000 0.000000 0.000000 0.000000 0.000000 0.000000 0.000000 0.000000 0.000000 0.000000 0.000000 0.000000 0.000000 0.000000 0.000000 0.000000 0.000000 0.000000 0.000000 0.000000 
0.000000 89.700000 0.000000 0.000000 0.000000 0.000000 -0.670580 0.043424 -1.621183 0.651181 -1.517611 -0.939060 -0.678864 -0.015397 3.155664 0.142566 2.051242 -1.368470 -0.343208 -2.197348 4.669430 0.000000 0.000000 0.000000 -22.951966 -3.956250 0.328768 -47.686303 -5.023974 17.813839 -10.393748 -25.308268 17.715399 -5.572255 17.333002 -8.595104 -38.884836 20.939424 -15.000000 -28.302050 0.000000 0.000000 -25.325445 0.000000 0.000000 0.022390 -0.001199 4.934506 -29.056366 15.696076 -15.000000 -19.690577 0.000000 0.000000 -37.225784 0.000000 0.000000 2.447046 -0.079831 2.056764 -30.888887 -14.790243 120.000000 -31.880921 0.000000 0.000000 15.000000 0.000000 0.000000 4.260386 -0.094452 1.375350 -32.410137 -4.754471 14.999983 -37.421591 0.000000 0.000000 -27.100227 0.000000 0.000000 -6.917769 0.291382 2.291170 -31.601135 0.876810 5.263040 -29.210821 0.000000 0.000000 -28.759289 0.000000 0.000000 0.441624 -0.014543 2.538997 25.122806 7.266106 0.251196 49.988985 4.654322 18.969930 3.440450 30.681266 4.710376 4.116395 -25.900250 5.703351 37.309871 -13.196977 -15.000000 24.128838 0.000000 0.000000 24.571791 0.000000 0.000000 -7.969741 -5.107087 -8.050663 34.443610 -11.094865 -7.178789 32.947115 0.000000 0.000000 29.004965 0.000000 0.000000 6.271931 -1.933901 -4.817211 31.312770 4.997640 9.336369 27.877527 0.000000 0.000000 28.183114 0.000000 0.000000 -1.013052 -2.505694 -6.799366 28.963737 -9.203438 -15.000000 16.651338 0.000000 0.000000 33.998930 0.000000 0.000000 -3.109834 -2.403556 -3.139792 31.676959 14.014428 120.000000 27.482195 0.000000 0.000000 -15.000000 0.000000 0.000000 -4.610124 -2.491975 -2.359596 0.000000 0.000000 0.000000 0.000000 0.000000 0.000000 0.000000 0.000000 0.000000 0.000000 0.000000 0.000000 0.000000 0.000000 0.000000 0.000000 0.000000 0.000000 0.000000 0.000000 0.000000 0.000000 0.000000 0.000000 
